<?xml version="1.0" encoding="utf-8"?>
<!-- Generator: Adobe Illustrator 17.1.0, SVG Export Plug-In . SVG Version: 6.00 Build 0)  -->
<!DOCTYPE svg PUBLIC "-//W3C//DTD SVG 1.1//EN" "http://www.w3.org/Graphics/SVG/1.1/DTD/svg11.dtd">
<svg version="1.1" id="Layer_1" xmlns="http://www.w3.org/2000/svg" xmlns:xlink="http://www.w3.org/1999/xlink" x="0px" y="0px"
	 viewBox="0 0 339 122.333" enable-background="new 0 0 339 122.333" xml:space="preserve">
<path fill="none" stroke="#B9CED4" stroke-width="2" stroke-miterlimit="10" d="M89.333,77.375c0,5.989-1.214,11.694-3.409,16.884
	c-2.195,5.189-5.371,9.863-9.296,13.787c-3.925,3.925-8.598,7.101-13.787,9.296s-10.895,3.409-16.884,3.409
	s-11.694-1.214-16.884-3.409s-9.863-5.371-13.787-9.296c-3.925-3.925-7.101-8.598-9.296-13.787S2.583,83.364,2.583,77.375
	s1.214-11.694,3.409-16.884s5.371-9.863,9.296-13.787s8.598-7.101,13.787-9.296S39.969,34,45.958,34s11.694,1.214,16.884,3.409"/>
<path fill="none" stroke="#B9CED4" stroke-width="2" stroke-miterlimit="10" d="M89.333,77.375c0-5.989,1.214-11.694,3.409-16.884
	c2.195-5.189,5.371-9.863,9.296-13.787s8.598-7.101,13.787-9.296C121.014,35.214,126.719,34,132.708,34
	c5.989,0,11.694,1.214,16.884,3.409s9.863,5.371,13.787,9.296s7.101,8.598,9.296,13.787c2.195,5.189,3.409,10.895,3.409,16.884
	s-1.214,11.694-3.409,16.884c-2.195,5.189-5.371,9.863-9.296,13.787c-3.925,3.925-8.598,7.101-13.787,9.296
	s-10.895,3.409-16.884,3.409c-5.989,0-11.694-1.214-16.884-3.409c-5.189-2.195-9.863-5.371-13.787-9.296
	c-3.925-3.925-7.101-8.598-9.296-13.787C90.547,89.069,89.333,83.364,89.333,77.375z"/>
<path fill="none" stroke="#B9CED4" stroke-width="2" stroke-miterlimit="10" d="M262.833,77.375c0,5.989-1.214,11.694-3.409,16.884
	s-5.371,9.863-9.296,13.787c-3.925,3.925-8.598,7.101-13.787,9.296s-10.895,3.409-16.884,3.409c-5.989,0-11.694-1.214-16.883-3.409
	s-9.863-5.371-13.787-9.296c-3.925-3.925-7.101-8.598-9.296-13.787c-2.195-5.189-3.409-10.895-3.409-16.884
	s1.214-11.694,3.409-16.884c2.195-5.189,5.371-9.863,9.296-13.787c3.925-3.925,8.598-7.101,13.787-9.296S213.469,34,219.458,34"/>
<path fill="none" stroke="#B9CED4" stroke-width="2" stroke-miterlimit="10" d="M262.833,77.375c0-5.989,1.214-11.694,3.409-16.884
	c2.195-5.189,5.371-9.863,9.296-13.787c3.925-3.925,8.598-7.101,13.787-9.296C294.514,35.214,300.219,34,306.208,34
	c5.989,0,11.694,1.214,16.883,3.409c5.189,2.195,9.863,5.371,13.787,9.296"/>
<line fill="none" stroke="#B9CED4" stroke-width="2" stroke-miterlimit="10" x1="262.833" y1="34" x2="262.833" y2="1.75"/>
</svg>
